<svg xmlns="http://www.w3.org/2000/svg" viewBox="0 0 928 645" fill="currentColor"><path fill-rule="evenodd" d="M 436.8 5.5 C 420.1 10.1, 412.1 20.1, 411.2 37.1 C 410.7 46.2, 412.3 53.7, 416.2 61.3 C 421.3 71.3, 432.8 79.3, 444.1 80.6 L 450 81.3 450 105.9 L 450 130.5 445.4 133 C 435.2 138.4, 420 150.7, 405.8 165.2 C 392.8 178.3, 391 180.6, 391 183.4 C 391 187.4, 393.6 190, 397.7 190 C 400.2 190, 403.2 187.5, 417.1 173.7 C 431.1 159.9, 448.2 145.9, 449.5 147.2 C 449.7 147.4, 450.4 175, 451 208.5 C 452 257.6, 452.5 269.8, 453.6 271.1 C 454.8 272.4, 454.3 272.9, 449.7 275.2 C 436 281.9, 400.8 314.9, 371.8 348.1 C 367 353.5, 366 355.4, 366 358.3 C 366 362.5, 368.8 365, 373.3 365 C 375.3 365, 377.1 363.9, 379.4 361.3 C 402.7 334.6, 415.1 321.7, 430.9 307.6 C 445.8 294.3, 455.6 287, 458.5 287 C 459.9 287, 463.4 289.1, 466.8 291.9 C 478 301.2, 489.2 318.5, 505.7 351.9 C 510.4 361.5, 515.1 370.1, 516.1 371.1 C 520.1 375.1, 528 372.1, 528 366.6 C 528 363.8, 504.8 318.5, 497 306 C 490.8 296.1, 480.5 283.4, 475.7 279.7 C 473.8 278.3, 470.2 276.1, 467.7 274.9 C 463.4 272.8, 463.2 272.5, 464.6 270.9 C 466 269.4, 466 262.8, 464.9 206.6 C 464.3 172.1, 463.9 143.7, 464.2 143.5 C 464.4 143.3, 475.4 150.9, 488.6 160.5 C 522.9 185.6, 519.5 183.5, 522.9 182.1 C 526.2 180.7, 528.3 176.9, 527.4 173.6 C 527.1 172.2, 521.6 167.5, 512.7 160.8 C 504.9 155, 492.1 145.5, 484.3 139.8 C 476.5 134, 468.8 128.6, 467.1 127.9 L 464 126.5 464 103.4 L 464 80.2 472.3 78.1 C 496.4 71.8, 507 64.5, 510 51.9 C 514.8 32.1, 497.3 11, 471.5 5.5 C 463 3.7, 443.3 3.7, 436.8 5.5 M 441.3 19 C 429.8 21.4, 425 27.7, 425 40.1 C 425 56.3, 435.8 67, 452.1 67 C 457.8 67, 482.3 60.9, 487.7 58.1 C 498.2 52.8, 499.7 44.3, 492.2 32.8 C 489 27.9, 482.2 23.5, 474 20.9 C 466.6 18.6, 448.2 17.5, 441.3 19 M 263.1 50.5 C 242.2 54.3, 233.1 65.1, 233 86.3 C 232.9 112.8, 244.3 132.9, 260.8 135.6 L 264.9 136.2 264.6 147.9 C 264.4 154.3, 264.2 160.7, 264.1 162.1 C 264 164.6, 263.6 164.8, 258.1 165.3 C 247.9 166.2, 241.6 170.4, 223.8 188 C 215.2 196.5, 207.6 204.7, 207.1 206.3 C 206.4 208.2, 206.4 209.7, 207.2 211.4 C 208.5 214.4, 213.2 216.6, 215.5 215.3 C 216.4 214.8, 224.2 207.4, 232.8 198.9 C 249.9 182.1, 255.5 178.3, 261.5 179.4 L 264.9 180.1 264.7 204.3 C 264.6 217.6, 264.6 240.3, 264.8 254.8 C 265 279.5, 265.1 281.1, 267 283 C 269.6 285.6, 274.2 285.6, 276.6 282.9 C 278.4 280.9, 278.5 278.2, 279 234.9 L 279.5 188.9 286 194.4 C 295 202.1, 307.1 209.1, 317.4 212.5 C 325.4 215.3, 326.2 215.4, 328.7 214 C 330.1 213.2, 331.8 211.2, 332.3 209.6 C 333.7 205.4, 330.7 202, 323.9 199.9 C 311.1 196.1, 300 188.7, 286.8 175.3 L 279.1 167.5 278.8 149.9 L 278.5 132.3 286 127.8 C 290.1 125.3, 298.2 121, 304 118.2 C 321.2 110, 327.5 102, 327.4 88.4 C 327.4 62.3, 296.9 44.4, 263.1 50.5 M 634 49.7 C 608.5 53, 594.9 64, 593.3 82.6 C 591.5 104.9, 607.2 124, 627.4 124 L 632.5 124 632.2 145.9 L 631.9 167.7 629.4 168.9 C 624 171.3, 610.7 182.2, 594.8 197.2 C 590.1 201.6, 589 203.2, 589 205.8 C 589 207.7, 589.8 209.8, 591 211 C 594.9 214.9, 597.4 213.7, 609.3 202.6 C 621.2 191.6, 630 184, 631.1 184 C 632 184, 632.7 197.2, 634 237.5 C 635.4 281.5, 635.4 280.6, 637.5 283 C 639.2 284.9, 639.2 285, 636.6 286 C 633.2 287.2, 621.2 295.3, 608.5 304.9 C 587.8 320.4, 566 342.5, 566 348 C 566 355.1, 574.1 358, 578.8 352.4 C 587.1 342.5, 596.2 333.1, 603.3 327.1 C 611.6 320.2, 630.8 306, 638.9 300.9 L 643.3 298.1 647.1 300 C 655.9 304.5, 658.7 311.1, 670.4 353.8 C 677.6 380.1, 678.1 381, 684.9 381 C 689 381, 691.3 377.9, 690.7 373.3 C 689.7 366.1, 673.4 312.2, 670.2 305.9 C 665.1 295.5, 656.8 287.2, 649.7 285.5 C 647.2 284.8, 647.2 284.7, 648.6 282.5 C 650 280.4, 650 277.5, 649 258.3 C 648.4 246.3, 647.6 226, 647.3 213.2 L 646.7 189.8 658.6 197.8 C 665.1 202.2, 675.2 209.9, 680.8 214.9 C 691.8 224.5, 694 225.4, 698.1 222.2 C 701.1 219.7, 701.1 214.8, 697.9 211.4 C 692.8 205.9, 676 192.5, 664 184.4 C 657.1 179.8, 650.5 175.2, 649.3 174.2 C 647.1 172.5, 647.1 172.1, 647 147.6 L 646.9 122.7 659.2 119 C 673.8 114.7, 681.1 111.4, 686.8 106.4 C 696.2 98.4, 697.9 88.4, 692.2 76.7 C 684.3 60.8, 667.2 50.8, 645.5 49.6 C 641.1 49.4, 635.9 49.4, 634 49.7 M 266.4 64.1 C 259.2 65, 253.1 67.8, 250.2 71.5 C 243.2 80.4, 246.5 106.5, 256 117.3 C 261.8 123.9, 262.9 123.7, 287.4 110.9 C 311.5 98.4, 313.5 96.7, 313.5 89 C 313.4 76.7, 301.5 66.5, 284.5 64 C 276.7 62.9, 275.1 62.9, 266.4 64.1 M 626 65.4 C 615.1 68.5, 609.8 72.5, 608 78.9 C 604.8 90.6, 610.1 104, 619.8 108.2 C 625.9 110.9, 636.3 110.2, 652.5 106.1 C 668 102.1, 678.5 97.1, 680.7 92.5 C 682.2 89.4, 682.2 88.8, 680.6 84.6 C 679.6 82.1, 676.9 78, 674.5 75.6 C 666.5 67.4, 656.4 63.9, 640.5 64.1 C 635 64.1, 628.5 64.7, 626 65.4 M 268.5 287.5 C 266.9 288.4, 261.9 292.2, 257.5 296.2 C 253.1 300.1, 244.4 307, 238.3 311.6 C 224.7 321.7, 217.6 328.9, 210.5 339.5 C 203.2 350.5, 193 370.6, 193 374.1 C 193 379.2, 198.2 382.4, 203.5 380.4 C 204.4 380, 207.1 375.5, 209.5 370.4 C 220.2 347.3, 228.8 336.7, 248.3 321.8 C 255 316.7, 263.1 310.2, 266.2 307.3 C 269.4 304.4, 272.4 302, 273 302 C 274.6 302, 277.4 308.5, 286.4 333.1 C 296.3 360.4, 301.4 372.6, 304.3 375.8 C 307 378.7, 311.1 378.6, 313.9 375.6 C 316.8 372.5, 316.5 370.4, 311.1 358.3 C 308.9 353.2, 303.5 339.3, 299.1 327.3 C 287.2 294.5, 286.2 292.5, 279.2 288.3 C 274.9 285.6, 272.6 285.5, 268.5 287.5 M 4.7 442.6 C 4.3 443, 4 487.8, 4 542.2 L 4 641 23.9 641 L 43.7 641 44.4 629.5 C 44.8 623.1, 45.1 613.1, 45 607.2 C 44.9 601.3, 44.9 592.6, 44.9 587.7 L 45 579 63.2 579.2 L 81.4 579.5 103.4 610.3 L 125.4 641 149.2 641 C 168.1 641, 173 640.7, 172.4 639.8 C 172 639.1, 161.6 624.7, 149.3 607.8 C 137 591, 126.8 576.6, 126.5 575.8 C 126.1 574.9, 128.3 573.4, 132.8 571.3 C 152 562.4, 164.9 546.6, 170.2 525.8 C 172.8 515.4, 172.3 501.2, 169 490.5 C 162.1 468.3, 144 451.4, 120.3 444.8 C 112.8 442.7, 110.1 442.6, 59 442.2 C 29.6 442, 5.1 442.2, 4.7 442.6 M 301.2 442.9 C 299.3 443.4, 294.2 453.4, 271.9 500.5 C 257 531.9, 236.9 574.2, 227.3 594.5 C 210.6 629.7, 206 639.6, 206 640.6 C 206 640.8, 216 641, 228.3 641 L 250.6 641 257 626.9 C 260.4 619.2, 263.8 612.7, 264.4 612.5 C 265 612.3, 285.7 611.9, 310.4 611.7 C 350.1 611.4, 355.3 611.6, 356.2 612.9 C 356.7 613.8, 359.7 620.4, 363 627.5 L 368.9 640.5 391.4 640.8 C 403.9 640.9, 414 640.8, 414 640.4 C 414 639.2, 322.1 444.9, 320.8 443.3 C 319.7 441.9, 305.5 441.6, 301.2 442.9 M 453 541.4 L 453 641 509.8 641 C 563.1 641, 567.2 640.9, 574.4 639 C 595.4 633.7, 610.8 619.4, 617.6 599 C 620.4 590.7, 620.1 572.7, 617.1 564 C 613 552.2, 607 544.3, 597.1 537.5 L 590.3 532.8 595 528.4 C 613.7 511, 613 478.5, 593.6 459.5 C 586.4 452.4, 578.1 447.8, 567.3 444.8 C 559.8 442.7, 557.2 442.6, 506.3 442.2 L 453 441.9 453 541.4 M 662 541.5 L 662 641 682 641 L 702 641 701.8 541.8 L 701.5 442.5 681.8 442.2 L 662 442 662 541.5 M 748.7 442.6 C 748.3 443, 748 487.8, 748 542.2 L 748 641 768 641 L 788 641 788 607.7 L 788 574.5 797.3 565.2 L 806.6 556 827.6 582.2 C 839.2 596.7, 854.4 615.8, 861.4 624.8 L 874.1 641 899.1 641 C 918.8 641, 924 640.7, 923.4 639.8 C 922.2 637.7, 895.8 604.4, 863.3 563.8 L 833.1 526.2 875.6 485 C 898.9 462.4, 918 443.4, 918 442.9 C 918 442.4, 907 442, 891.9 442 L 865.9 442 827.2 480 L 788.5 518 788 480.3 L 787.5 442.5 768.4 442.2 C 758 442.1, 749.1 442.3, 748.7 442.6 M 45 478.2 C 45 478.4, 44.8 492.8, 44.7 510.3 L 44.5 542 75.2 542 C 110.5 542, 112.8 541.6, 121.8 533.5 C 128.9 527.1, 131.5 520.8, 131.4 510 C 131.4 502.8, 131 500.7, 128.7 496.3 C 125.2 489.6, 119.8 484.4, 113 481.1 L 107.5 478.5 76.3 478.2 C 59.1 478, 45 478, 45 478.2 M 493 500 L 493 522.1 522.3 521.8 C 551.3 521.5, 551.6 521.5, 556.4 519 C 562.9 515.7, 566.8 510.7, 568.1 504 C 570.1 494.2, 565.9 485.7, 556.6 480.7 C 552.7 478.6, 551.1 478.5, 522.8 478.2 L 493 477.9 493 500 M 309 513.9 C 309 514.3, 303 527.5, 295.6 543.2 C 288.3 558.8, 282 572.6, 281.6 573.8 L 280.9 576 307.7 575.9 C 322.4 575.8, 335.5 575.5, 336.8 575.2 C 339 574.5, 338.9 574.2, 332.5 560.5 C 328.9 552.8, 322.4 539, 318.2 529.8 C 311.4 515, 309 510.9, 309 513.9 M 493 581.5 L 493 606.1 526.8 605.8 L 560.5 605.5 566.3 602.6 C 584.2 593.8, 584.2 569.2, 566.3 560.4 L 560.5 557.5 526.8 557.2 L 493 556.9 493 581.5"/></svg>
